<svg class="svg-icon" style="width: 1em; height: 1em;vertical-align: middle;fill: currentColor;overflow: hidden;" viewBox="0 0 1024 1024" version="1.1" xmlns="http://www.w3.org/2000/svg"><path d="M512 981.33H85.34c-15.85 0-30.38-8.77-37.77-22.81a42.624 42.624 0 0 1 2.6-44.02L135 791.08C75.25 710.5 42.67 612.6 42.67 512 42.67 253.21 253.21 42.67 512 42.67S981.34 253.21 981.34 512 770.8 981.33 512 981.33zM166.44 896H512c211.73 0 384-172.27 384-384S723.73 128 512 128 128 300.27 128 512c0 91.29 32.83 179.9 92.46 249.46 12.58 14.69 13.73 36 2.77 51.94L166.44 896z" fill="#2F3CF4" /><path d="M384 448m-64 0a64 64 0 1 0 128 0 64 64 0 1 0-128 0Z" fill="#2F3CF4" /><path d="M640 448m-64 0a64 64 0 1 0 128 0 64 64 0 1 0-128 0Z" fill="#2F3CF4" /></svg>