<svg class="svg-icon" style="width: 1em; height: 1em;vertical-align: middle;fill: currentColor;overflow: hidden;" viewBox="0 0 1024 1024" version="1.1" xmlns="http://www.w3.org/2000/svg"><path d="M472.2688 508.0576l-102.06208-42.84416-12.58496 12.73856 55.06048 20.56192c-22.58944-1.15712-30.33088-1.80224-64.04096 13.1584l11.93984 13.03552c54.36416-23.86944 111.68768-16.65024 111.68768-16.65024zM616.22272 494.62272l55.07072-20.50048-12.53376-12.75904-102.07232 42.86464s57.33376-7.2192 111.63648 16.59904l11.93984-12.98432c-33.64864-15.02208-41.40032-14.4384-64.04096-13.21984zM540.2112 767.47776c-0.50176 0.04096-1.00352 0.13312-1.50528 0.16384l1.50528-0.16384zM606.17728 633.38496c-100.23936 53.80096-154.13248 7.80288-154.13248 7.80288-15.58528-8.4992-69.5808-12.58496-42.37312 50.90304 11.24352 18.76992 23.9104 33.8432 37.4784 45.55776 3.36896-4.10624 80.4864-96.19456 177.6128-15.40096a226.11968 226.11968 0 0 0 29.26592-36.67968c34.79552-80.128-47.64672-49.8688-47.85152-52.18304zM447.4368 737.8944c27.63776 23.73632 59.0848 33.25952 90.34752 29.82912-53.39136 3.328-85.9648-29.184-90.34752-29.82912z" fill="#E60012" /><path d="M447.15008 737.6384l-0.16384 0.2048c0.08192-0.06144 0.28672 0.02048 0.44032 0.0512 4.37248 0.64512 36.94592 33.15712 90.34752 29.82912h0.2048c0.23552-0.01024 0.47104-0.06144 0.7168-0.08192 0.50176-0.03072 1.00352-0.12288 1.50528-0.16384 45.80352-3.97312 88.96512-42.72128 84.56192-45.24032-97.11616-80.78336-174.24384 11.29472-177.6128 15.40096z" fill="#EA5F72" /><path d="M294.4512 572.3136l0.28672 9.04192 0.50176-0.26624-0.78848-8.77568zM194.02752 609.44384c4.94592 11.01824 5.70368 28.01664 0.54272 42.57792-10.05568 27.65824-35.2768 43.07968-65.44384 31.78496-26.56256-10.00448-38.88128-44.71808-28.7744-73.94304 9.78944-28.416 40.86784-42.74176 67.64544-30.40256l103.85408-53.9648c-0.57344-9.44128-1.20832-19.03616-1.90464-28.80512l-101.84704 55.73632c-48.77312-12.3392-80.1792 20.20352-87.7568 49.50016-13.39392 51.64032 10.6496 91.99616 48.0768 105.216 25.81504 9.02144 74.58816 1.46432 88.84224-54.2208 0.74752-3.14368 4.46464-17.33632 1.60768-30.976l56.29952-30.13632c-0.3072-8.0896-0.6656-16.34304-1.06496-24.69888l-80.0768 42.33216zM943.94368 587.7248c-7.3728-29.46048-38.3488-62.42304-87.18336-50.75968l-115.77344-65.29024 0.16384 11.06944 0.60416 19.69152 114.7904 61.55264c26.89024-11.8784 57.7536 2.83648 67.21536 31.37536 9.89184 29.27616-2.89792 63.87712-29.58336 73.4208-30.26944 10.9568-55.38816-4.88448-65.01376-32.60416-5.10976-14.62272-4.13696-31.62112 1.024-42.57792L743.1168 546.0992c0.27648 8.74496 0.57344 17.52064 0.84992 25.9072l61.15328 33.77152c-3.01056 13.55776 0.59392 27.84256 1.34144 30.9248 13.60896 55.9616 62.38208 64.16384 88.24832 55.5008 37.56032-12.70784 62.08512-52.64384 49.23392-104.47872z" fill="#D71618" /><path d="M741.76512 502.4256l-0.60416-19.69152-0.16384-11.06944c-2.37568-164.9664-0.37888-379.98592-0.37888-382.04416l0.48128-43.43808-86.74304 158.38208L676.18816 17.3056l-25.81504 45.7728c-21.66784 38.49216-85.28896 141.49632-118.6304 155.70944-21.03296 9.08288-43.6736 13.27104-67.11296 12.81024-115.82464-2.4576-221.22496-121.00608-222.30016-122.17344l-24.36096-27.83232 6.4 38.61504c24.00256 145.57184 38.11328 270.37696 45.59872 376.50432a2949.77536 2949.77536 0 0 1 5.23264 95.11936c11.32544 296.9088-32.96256 414.88384-32.96256 414.88384h255.96928l33.83296-91.71968 34.26304 91.71968H799.3344s-53.5552-233.6768-53.17632-380.99968c-0.48128-6.21568-1.30048-28.16-2.17088-53.68832a16328.8064 16328.8064 0 0 1-2.22208-69.60128z m33.36192 482.89792l-186.48064 2.62144-54.21056-129.90464-52.92032 128.9216-207.36-0.23552c19.15904-82.59584 25.46688-242.64704 20.57216-405.37088l-0.28672-9.04192c-5.30432-162.7648-21.77024-326.8096-47.8208-417.46432 39.5776 36.33152 122.9824 101.19168 214.45632 101.79584 26.24512 0.1024 51.36384-5.14048 74.9568-15.55456 30.976-13.80352 74.63936-79.08352 102.07232-124.32384L617.89184 310.784l96.36864-181.61664c0.31744 71.68 10.27072 475.79136 11.93984 494.08 1.18784 128.512 35.92192 309.30944 48.92672 362.07616z" fill="#E60012" /><path d="M556.32896 411.11552c-5.91872 1.7408-6.94272 9.96352-6.94272 9.96352s64.96256-20.50048 129.06496-18.52416c4.51584 0.06144 6.83008-9.90208 6.83008-9.90208s-32.26624-9.25696-128.95232 18.46272zM464.14848 413.92128c-96.256-35.06176-128.24576-28.13952-128.24576-28.13952s2.36544 10.26048 6.88128 10.47552c63.55968 2.74432 128.3072 28.13952 128.3072 28.13952s-1.13664-8.33536-6.94272-10.47552z" fill="#E60012" /></svg>