<?xml version="1.0" standalone="no"?>
<!DOCTYPE svg PUBLIC "-//W3C//DTD SVG 20010904//EN"
 "http://www.w3.org/TR/2001/REC-SVG-20010904/DTD/svg10.dtd">
<svg version="1.0" xmlns="http://www.w3.org/2000/svg"
 width="150.000000pt" height="67.000000pt" viewBox="0 0 150.000000 67.000000"
 preserveAspectRatio="xMidYMid meet">

<g transform="translate(0.000000,67.000000) scale(0.100000,-0.100000)"
fill="#000000" stroke="none">
<path d="M487 523 c-3 -5 -8 -74 -12 -155 -6 -133 -5 -148 10 -154 9 -4 26 -2
38 5 20 10 20 10 2 8 -19 -2 -20 3 -18 151 2 133 -4 173 -20 145z"/>
<path d="M576 498 c-3 -18 -8 -90 -11 -160 -6 -113 -5 -128 9 -128 10 0 16 9
17 23 0 41 10 242 12 266 3 38 -21 37 -27 -1z"/>
<path d="M1226 478 c-3 -29 -6 -82 -7 -118 0 -36 -4 -87 -8 -115 -6 -35 -5
-45 2 -34 9 14 13 15 36 2 53 -30 113 21 115 97 2 79 -52 90 -100 22 l-26 -37
6 65 c4 36 9 89 12 118 5 42 3 52 -8 52 -11 0 -17 -16 -22 -52z m110 -152 c10
-40 -14 -95 -43 -102 -38 -10 -59 16 -44 54 16 38 47 72 66 72 8 0 17 -11 21
-24z"/>
<path d="M122 468 c-7 -7 -12 -23 -12 -37 l1 -26 15 28 c11 20 22 27 46 27
l31 0 -7 -125 c-6 -104 -5 -125 7 -125 15 0 27 83 27 193 l0 57 45 0 c25 0 45
5 45 10 0 15 -183 13 -198 -2z"/>
<path d="M742 471 c-10 -6 -8 -10 8 -14 22 -6 22 -8 15 -126 -6 -106 -5 -121
8 -121 13 0 17 14 19 63 l3 62 63 3 62 3 0 -59 c0 -65 10 -81 46 -74 21 4 37
24 17 21 -34 -5 -35 1 -32 126 3 107 2 125 -11 123 -11 -2 -16 -19 -18 -61
l-3 -57 -59 0 -59 0 -3 58 c-3 48 -6 57 -23 60 -11 1 -26 -2 -33 -7z"/>
<path d="M323 368 c-25 -12 -31 -48 -9 -48 9 0 12 7 9 20 -5 17 0 20 26 20 28
0 31 -3 31 -29 0 -25 -5 -30 -35 -35 -57 -11 -83 -73 -38 -90 18 -7 63 19 63
35 0 8 -5 7 -15 -1 -16 -13 -45 -7 -45 9 0 17 31 41 52 41 14 0 18 -5 14 -15
-3 -8 0 -26 6 -40 9 -19 19 -25 42 -24 29 0 29 1 9 9 -21 8 -23 16 -23 73 0
36 -5 68 -12 75 -15 15 -45 14 -75 0z"/>
<path d="M647 369 c-20 -12 -51 -68 -43 -77 3 -3 6 -1 6 4 0 16 39 54 55 54
26 0 16 -30 -15 -48 -16 -9 -30 -19 -30 -22 0 -3 9 -20 20 -37 20 -34 50 -42
80 -23 12 8 10 10 -9 8 -15 -2 -30 6 -44 24 l-21 27 28 26 c44 41 23 93 -27
64z"/>
<path d="M1005 370 c-17 -7 -17 -9 -2 -9 14 -1 17 -11 17 -70 0 -82 15 -103
54 -77 14 8 27 25 31 36 8 24 25 17 25 -10 0 -21 28 -40 47 -33 8 3 5 11 -8
24 -15 15 -19 33 -19 84 0 71 -15 87 -26 28 -9 -51 -42 -115 -57 -110 -7 2
-13 31 -15 75 -3 74 -7 79 -47 62z"/>
</g>
</svg>
